/* XPM */
static char *_8fa4b168e874928dc559e7c856af361[] = {
/* columns rows colors chars-per-pixel */
"128 128 18 1 ",
"  c #ED1C24",
". c #EE2A32",
"X c #EF383F",
"o c #F0474D",
"O c #F2555B",
"+ c #F36368",
"@ c #F47176",
"# c #F57F84",
"$ c #F68E92",
"% c #F79C9F",
"& c #F8AAAD",
"* c #F9B8BB",
"= c #FBC6C8",
"- c #FCD4D6",
"; c #FDE3E4",
": c #FEF1F1",
"> c gray100",
", c None",
/* pixels */
",,,,,,,,,,,,,,,,,,,,,,,,,,,,,,,,,,,,,,,,,,,,,,,,,,,,,,,,,,,,,,,,,,,,,,,,,,,,,,,,,,,,,,,,,,,,,,,,,,,,,,,,,,,,,,,,,,,,,,,,,,,,,,,,",
",,,,,,,,,,,,,,,,,,,,,,,,,,,,,,,,,,,,,,,,,,,,,,,,,,,,,,,,,,,,,,,,,,,,,,,,,,,,,,,,,,,,,,,,,,,,,,,,,,,,,,,,,,,,,,,,,,,,,,,,,,,,,,,,",
",,,,,,,,,,,,,,,,,,,,,,,,,,,,,,,,,,,,,,,,,,,,,,,,,,,,,,,,,,,,,,,,,,,,,,,,,,,,,,,,,,,,,,,,,,,,,,,,,,,,,,,,,,,,,,,,,,,,,,,,,,,,,,,,",
",,,,,,,,,,,,,,,,,,,,,,,,,,,,,,,,,,,,,,,,,,,,,,,,,,,,,,,,,,,,,,,,,,,,,,,,,,,,,,,,,,,,,,,,,,,,,,,,,,,,,,,,,,,,,,,,,,,,,,,,,,,,,,,,",
",,,,,,,,,,,,,,,,,,,,,,,,,,,,,,,,,,,,,,,,,,,,,,,,,,,,,,,                   ,,,,,,,,,,,,,,,,,,,,,,,,,,,,,,,,,,,,,,,,,,,,,,,,,,,,,,",
",,,,,,,,,,,,,,,,,,,,,,,,,,,,,,,,,,,,,,,,,,,,,,,,,,                             ,,,,,,,,,,,,,,,,,,,,,,,,,,,,,,,,,,,,,,,,,,,,,,,,,",
",,,,,,,,,,,,,,,,,,,,,,,,,,,,,,,,,,,,,,,,,,,,,,,                                   ,,,,,,,,,,,,,,,,,,,,,,,,,,,,,,,,,,,,,,,,,,,,,,",
",,,,,,,,,,,,,,,,,,,,,,,,,,,,,,,,,,,,,,,,,,,,                                         ,,,,,,,,,,,,,,,,,,,,,,,,,,,,,,,,,,,,,,,,,,,",
",,,,,,,,,,,,,,,,,,,,,,,,,,,,,,,,,,,,,,,,,                                               ,,,,,,,,,,,,,,,,,,,,,,,,,,,,,,,,,,,,,,,,",
",,,,,,,,,,,,,,,,,,,,,,,,,,,,,,,,,,,,,,,                  XO+$$$$$$$$$+OX                  ,,,,,,,,,,,,,,,,,,,,,,,,,,,,,,,,,,,,,,",
",,,,,,,,,,,,,,,,,,,,,,,,,,,,,,,,,,,,,               O$*->>>>>>>>>>>>>>>>>-*$O               ,,,,,,,,,,,,,,,,,,,,,,,,,,,,,,,,,,,,",
",,,,,,,,,,,,,,,,,,,,,,,,,,,,,,,,,,,             o#=>>>>>>>>>>>>>>>>>>>>>>>>>>>=$o             ,,,,,,,,,,,,,,,,,,,,,,,,,,,,,,,,,,",
",,,,,,,,,,,,,,,,,,,,,,,,,,,,,,,,,            o%;>>>>>>>>>>>>>>>>>>>>>>>>>>>>>>>>>;%o            ,,,,,,,,,,,,,,,,,,,,,,,,,,,,,,,,",
",,,,,,,,,,,,,,,,,,,,,,,,,,,,,,,,          .@->>>>>>>>>>>>>>>>>>>>>>>>>>>>>>>>>>>>>>>;#.           ,,,,,,,,,,,,,,,,,,,,,,,,,,,,,,",
",,,,,,,,,,,,,,,,,,,,,,,,,,,,,,          .$:>>>>>>>>>>>>>>>>>>>>>>>>>>>>>>>>>>>>>>>>>>>:%X          ,,,,,,,,,,,,,,,,,,,,,,,,,,,,,",
",,,,,,,,,,,,,,,,,,,,,,,,,,,,,         .$:>>>>>>>>>=$*->>>>>>>>>>>>>>>>>>>>>>>>>>>>>>>>>>>&X         ,,,,,,,,,,,,,,,,,,,,,,,,,,,,",
",,,,,,,,,,,,,,,,,,,,,,,,,,,         .$:>>>>>>>>>>>#    oO=>>>>>>>>>>>>>>>>>>>>>>>>>>>>>>>>:$.         ,,,,,,,,,,,,,,,,,,,,,,,,,,",
",,,,,,,,,,,,,,,,,,,,,,,,,,         +;>>>>>>>>>>>>>O      &>>>>$*=>>>>>>>>>>>>>>>>>>>>>>>>>>>:+         ,,,,,,,,,,,,,,,,,,,,,,,,,",
",,,,,,,,,,,,,,,,,,,,,,,,,        .*>>>>>>>>>>>>>>>.      =>>>>    XO$>>>>>>>>>>>>>>>>>>>>>>>>>=X        ,,,,,,,,,,,,,,,,,,,,,,,,",
",,,,,,,,,,,,,,,,,,,,,,,,        +:>>>>>>>>>>>>>>>>       >>>>=      .>>>>>>>>>>>>>>>>>>>>>>>>>>:@        ,,,,,,,,,,,,,,,,,,,,,,,",
",,,,,,,,,,,,,,,,,,,,,,,        %>>>>>>>>>>>>>>>>>=      .>>>>&      O>>>>>>>>>>>>>>>>>>>>>>>>>>>>&.       ,,,,,,,,,,,,,,,,,,,,,,",
",,,,,,,,,,,,,,,,,,,,,,       X->>>>>>>>>>>>>>>>>>&      O>>>>$      #>>>>>>>>>>>>>>>>>>>>>>>>>>>>>-o       ,,,,,,,,,,,,,,,,,,,,,",
",,,,,,,,,,,,,,,,,,,,,       o:>>>>>>>>>>>>>>>>>>>$      #>>>>O      %>>>>>>>>>>>>>>>>>>>>>>>>>>>>>>:O       ,,,,,,,,,,,,,,,,,,,,",
",,,,,,,,,,,,,,,,,,,,       @:>>>>>>>>>>>>>>>>>>>>O      %>>>>o      =>>>>>>>>>>>>>>>>>>>>>>>>>>>>>>>>@       ,,,,,,,,,,,,,,,,,,,",
",,,,,,,,,,,,,,,,,,,       @>>>>>>>>>>>>>>>>>>>>>>X      =>>>>       ;>>>>>>>>>>>>>>>>>>>>>>>>>>>>>>>>>@       ,,,,,,,,,,,,,,,,,,",
",,,,,,,,,,,,,,,,,,       @>>>>>>>>>>>>>>>>>>>>>>>       ;>>>-       >>>>>>>>>>>>>>>>>>>>>>>>>>>>>>>>>>>@       ,,,,,,,,,,,,,,,,,",
",,,,,,,,,,,,,,,,,       @>>>>>>>>>>>>>>>>>>>>>>>-       >>>>*      O>>>>>>>>>>>>>>>>>>>>>>>>>>>>>>>>>>>>@       ,,,,,,,,,,,,,,,,",
",,,,,,,,,,,,,,,,       @>>>>>>>>>>>>>>>>>>>>>>>>*      O>>>>$      @>>>>>>>>>>>>>>>>>>>>>>>>>>>>>>>>>>>>>@       ,,,,,,,,,,,,,,,",
",,,,,,,,,,,,,,,,      O>>>>>>>>>>>>>>>>$O@$=->>>$      @>>>>+      $>>>>>>>>>>>>>>>>>>>>>>>>>>>>>>>>>>>>>>@       ,,,,,,,,,,,,,,",
",,,,,,,,,,,,,,,      o:>>>>>>>>>>>>>>>>+      o+o      $>>>>O      *>>>>>>>>>>>>>>>>>>>>>>>>>>>>>>>>>>>>>>:o      ,,,,,,,,,,,,,,",
",,,,,,,,,,,,,,      .->>>>>>>>>>>>>>>>>o               #=:>>       ->>>>>>>>>>>>>>>>>>>>>>>>>>>>>>>>>>>>>>>;.      ,,,,,,,,,,,,,",
",,,,,,,,,,,,,       *>>>>>>>>>>>>>>>>>>                   .O       >>>>>>>>>>>>>>>>>>>>>>>>>>>>>>>>>>>>>>>>>=       ,,,,,,,,,,,,",
",,,,,,,,,,,,,      #>>>>>>>>>>>>>>>>>>-                           .$=;>>>>>>>>>>>>>>>>>>>>>>>>>>>>>>>>>>>>>>>$      ,,,,,,,,,,,,",
",,,,,,,,,,,,      o:>>>>>>>>>>>>>>>>>>=                               .O$*;>>>>>>>>>>>>>>>>>>>>>>>>>>>>>>>>>>>o      ,,,,,,,,,,,",
",,,,,,,,,,,,      ->>>>>>>>>>>>>>>>>>>$                                    X@&;>>>>>>>>>>>>>>>>>>>>>>>>>>>>>>>-       ,,,,,,,,,,",
",,,,,,,,,,,      #>>>>>>>>>>>>>>>>>>>>@                                        o%;>>>>>>>>>>>>>>>>>>>>>>>>>>>>>$      ,,,,,,,,,,",
",,,,,,,,,,      X:>>>>>>>>>>>>>>>>>>>>&$OX                                        O*>>>>>>>>>>>>>>>>>>>>>>>>>>>>X      ,,,,,,,,,",
",,,,,,,,,,      &>>>>>>>>>>>>>>>>>>>>>>>>>>=&$+.                                    X=>>>>>>>>>>>>>>>>>>>>>>>>>>=      ,,,,,,,,,",
",,,,,,,,,      O>>>>>>>>>>>>>>>>>>>>>>>>>>>>>>>X                                      +:>>>>>>>>>>>>>>>>>>>>>>>>>O      ,,,,,,,,",
",,,,,,,,,      =>>>>>>>>>>>>>>>>>>>>>>>>>>>>>>>          @#O.                          .*>>>>>>>>>>>>>>>>>>>>>>>>=      ,,,,,,,,",
",,,,,,,,,     O>>>>>>>>>>>>>>>>>>>>>>>>>>>>>>>-          :>>>>=&$O.                      $>>>>>>>>>>>>>>>>>>>>>>>>O      ,,,,,,,",
",,,,,,,,      =>>>>>>>>>>>>>>>>>>>>>>>>>>>>>>>*          >>>>>>>>>>:*$O                   @>>>>>>>>>>>>>>>>>>>>>>>=      ,,,,,,,",
",,,,,,,,     X>>>>>>>>>>>>>>>>>>>>>>>>>>>>>>>>$         O>>>>>>>>>>>>>>>=$o                @>>>>>>>>>>>>>>>>>>>>>>>O     ,,,,,,,",
",,,,,,,      &>>>>>>>>>>>>>>>>>>>>>>>>>>>>>>>>+         @>>>>>>>>>>>>>>>>>>;%o              @>>>>>>>>>>>>>>>>>>>>>>&      ,,,,,,",
",,,,,,,     .:>>>>>>>>>>>>>>>>>>>>>>>>>>>>>>>>o         $>>>>>>>>>>>>>>>>>>>>>-@             #>>>>>>>>>>>>>>>>>>>>>>X     ,,,,,,",
",,,,,,,     @>>>>>>>>>>>>>>>>>>>>>>>>>>>>>>>>>          =>>>>>>>>>>>>>>>>>>>>>>>-o            *>>>>>>>>>>>>>>>>>>>>>#     ,,,,,,",
",,,,,,      ->>>>>>>>>>>>>>>>>>>>>>>>>>>>>>>>;          ;>>>>>>>>>>>>>>>>>>>>>>>>>#           .:>>>>>>>>>>>>>>>>>>>>-      ,,,,,",
",,,,,,     X>>>>>>>>>>>>>>>>>>>>>>>>>>>>>>>>>=          >>>>>>>>>>>>>>>>>>>>>>>>>>>&           +>>>>>>>>>>>>>>>>>>>>>o     ,,,,,",
",,,,,,     #>>>>>>>>>>>>>>>>>>>>>>>>>>>>>>>>>$         o>>>>>>>>>>>>>>>>>>>>>>>>>>>>$           =>>>>>>>>>>>>>>>>>>>>#     ,,,,,",
",,,,,      *>>>>>>>>>>>>>>>>>>>>>>>>>>>>>>>>>@         +>>>>>>>>>>>>>>>>>>>>>>>>>>>>>+          O>>>>>>>>>>>>>>>>>>>>-      ,,,,",
",,,,,      >>>>>>>>>>>>>>>>>>>>>>>>>>>>>>>>>>O         $>>>>>>>>>>>>>>>>>>>>>>>>>>>>>:.          =>>>>>>>>>>>>>>>>>>>>.     ,,,,",
",,,,,     O>>>>>>>>>>>>>>>>>>>>>>>>>>>>>>>>>>.         *>>>>>>>>>>>>>>>>>>>>>>>>>>>>>>&          @>>>>>>>>>>>>>>>>>>>>+     ,,,,",
",,,,,     $>>>>>>>>>>>>>>>>>>>>>>>>>>>>>>>>>:          =>>>>>>>>>>>>>>>>>>>>>>>>>>>>>>>X          :>>>>>>>>>>>>>>>>>>>%     ,,,,",
",,,,,     =>>>>>>>>>>>>>>>>>>>>>>>>>>>>>>>>>=          >>>>>>>>>>>>>>>>>>>>>>>>>>>>>>>>&          &>>>>>>>>>>>>>>>>>>>=      ,,,",
",,,,      :>>>>>>>>>>>>>>>>>>>>>>>>>>>>>>>>>%         X>>>>>>>>>>>>>>>>>>>>>>>>>>>>>>>>:.         +>>>>>>>>>>>>>>>>>>>>      ,,,",
",,,,     X>>>>>>>>>>>>>>>>>>>>>>>>>>>>>>>>>>#         O>>>>>>>>>>>>>>>>>>>>>>>>>>>>>>>>>@          >>>>>>>>>>>>>>>>>>>>o     ,,,",
",,,,     O>>>>>>>>>>>>>>>>>>>>>>>>>>>>>>>>>>O         $>>>>>>>>>>>>>>>>>>>>>>>>>>>>>>>>>*          =>>>>>>>>>>>>>>>>>>>+     ,,,",
",,,,     $>>>>>>>>>>>>>>>>>>>>>>>>>>>>>>>>>>X         &>>>>>>>>>>>>>>>>>>>>>>>>>>>>>>>>>:          %>>>>>>>>>>>>>>>>>>>$     ,,,",
",,,,     $>>>>>>>>>>>>>>>>>>>>>>>>>>>>>>>>>>          =>>>>>>>>>>>>>>>>>>>>>>>>>>>>>>>>>>X         @>>>>>>>>>>>>>>>>>>>&     ,,,",
",,,,     =>>>>>>>>>>>>>>>>>>>>>>>>>>>>>>>>>=          :>>>>>>>>>>>>>>>>>>>>>>>>>>>>>>>>>>O         O>>>>>>>>>>>>>>>>>>>=     ,,,",
",,,,     =>>>>>>>>>>>>>>>>>>>>>>>>>>>>>>>>>&         .>>>>>>>>>>>>>>>>>>>>>>>>>>>>>>>>>>>$         X>>>>>>>>>>>>>>>>>>>=     ,,,",
",,,,     =>>>>>>>>>>>>>>>>>>>>>>>>>>>>>>>>>$         O>>>>>>>>>>>>>>>>>>>>>>>>>>>>>>>>>>>$          >>>>>>>>>>>>>>>>>>>:      ,,",
",,,      :>>>>>>>>>>>>>>>>>>>>>>>>>>>>>>>>>+         #>>>>>>>>>>>>>>>>>>>>>>>>>>>>>>>>>>>$          >>>>>>>>>>>>>>>>>>>>      ,,",
",,,      >>>>>>>>>>>>>>>>>>>>>>>>>>>>>>>>>>o         $>>>>>>>>>>>>>>>>>>>>>>>>>>>>>>>>>>>$          >>>>>>>>>>>>>>>>>>>>      ,,",
",,,      >>>>>>>>>>>>>>>>>>>>>>>>>>>>>>>>>>          =>>>>>>>>>>>>>>>>>>>>>>>>>>>>>>>>>>>$          >>>>>>>>>>>>>>>>>>>>      ,,",
",,,      >>>>>>>>>>>>>>>>>>>>>>>>>>>>>>>>>-          ;>>>>>>>>>>>>>>>>>>>>>>>>>>>>>>>>>>>$          >>>>>>>>>>>>>>>>>>>>      ,,",
",,,      >>>>>>>>>>>>>>>>>>>>>>>>>>>>>>>>>*          >>>>>>>>>>>>>>>>>>>>>>>>>>>>>>>>>>>>$          >>>>>>>>>>>>>>>>>>>>      ,,",
",,,      ;>>>>>>>>>>>>>>>>>>>>>>>>>>>>>>>>$         O>>>>>>>>>>>>>>>>>>>>>>>>>>>>>>>>>>>>#         X>>>>>>>>>>>>>>>>>>>>      ,,",
",,,,     =>>>>>>>>>>>>>>>>>>>>>>>>>>>>>>>>@         @>>>>>>>>>>>>>>>>>>>>>>>>>>>>>>>>>>>>O         O>>>>>>>>>>>>>>>>>>>;      ,,",
",,,,     =>>>>>>>>>>>>>>>>>>>>>>>>>>>>>>>>O         $>>>>>>>>>>>>>>>>>>>>>>>>>>>>>>>>>>>>X         +>>>>>>>>>>>>>>>>>>>=     ,,,",
",,,,     *>>>>>>>>>>>>>>>>>>>>>>>>>>>>>>>>          *>>>>>>>>>>>>>>>>>>>>>>>>>>>>>>>>>>>>          $>>>>>>>>>>>>>>>>>>>=     ,,,",
",,,,     $>>>>>>>>>>>>>>>>>>>>>>>>>>>>>>>;          ->>>>>>>>>>>>>>>>>>>>>>>>>>>>>>>>>>>=          *>>>>>>>>>>>>>>>>>>>%     ,,,",
",,,,     #>>>>>>>>>>>>>>>>>>>>>>>>>>>>>>>=          >>>>>>>>>>>>>>>>>>>>>>>>>>>>>>>>>>>>%          ->>>>>>>>>>>>>>>>>>>$     ,,,",
",,,,     O>>>>>>>>>>>>>>>>>>>>>>>>>>>>>>>%         o>>>>>>>>>>>>>>>>>>>>>>>>>>>>>>>>>>>>+         .>>>>>>>>>>>>>>>>>>>>O     ,,,",
",,,,     .>>>>>>>>>>>>>>>>>>>>>>>>>>>>>>>#         O>>>>>>>>>>>>>>>>>>>>>>>>>>>>>>>>>>>>.         O>>>>>>>>>>>>>>>>>>>>X     ,,,",
",,,,      ;>>>>>>>>>>>>>>>>>>>>>>>>>>>>>>O         $>>>>>>>>>>>>>>>>>>>>>>>>>>>>>>>>>>>*          $>>>>>>>>>>>>>>>>>>>:      ,,,",
",,,,,     *>>>>>>>>>>>>>>>>>>>>>>>>>>>>>>.         &>>>>>>>>>>>>>>>>>>>>>>>>>>>>>>>>>>>@          ->>>>>>>>>>>>>>>>>>>=     ,,,,",
",,,,,     #>>>>>>>>>>>>>>>>>>>>>>>>>>>>>>          =>>>>>>>>>>>>>>>>>>>>>>>>>>>>>>>>>>:.         .>>>>>>>>>>>>>>>>>>>>$     ,,,,",
",,,,,     o>>>>>>>>>>>>>>>>>>>>>>>>>>>>>=          >>>>>>>>>>>>>>>>>>>>>>>>>>>>>>>>>>>&          @>>>>>>>>>>>>>>>>>>>>O     ,,,,",
",,,,,      :>>>>>>>>>>>>>>>>>>>>>>>>>>>>&         X>>>>>>>>>>>>>>>>>>>>>>>>>>>>>>>>>>>X          *>>>>>>>>>>>>>>>>>>>>      ,,,,",
",,,,,,     &>>>>>>>>>>>>>>>>>>>>>>>>>>>>$         O>>>>>>>>>>>>>>>>>>>>>>>>>>>>>>>>>>&          X>>>>>>>>>>>>>>>>>>>>*      ,,,,",
",,,,,,     @>>>>>>>>>>>>>>>>>>>>>>>>>>>>O         #>>>>>>>>>>>>>>>>>>>>>>>>>>>>>>>>>:X          $>>>>>>>>>>>>>>>>>>>>#     ,,,,,",
",,,,,,     .>>>>>>>>>>>>>>>>>>>>>>>>>>>>X         %>>>>>>>>>>>>>>>>>>>>>>>>>>>>>>>>>#           ;>>>>>>>>>>>>>>>>>>>>X     ,,,,,",
",,,,,,      *>>>>>>>>>>>>>>>>>>>>>>>>>>>          =>>>>>>>>>>>>>>>>>>>>>>>>>>>>>>>>=           @>>>>>>>>>>>>>>>>>>>>*      ,,,,,",
",,,,,,,     +>>>>>>>>>>>>>>>>>>>>>>>>>>-          :>>>>>>>>>>>>>>>>>>>>>>>>>>>>>>>;.           ;>>>>>>>>>>>>>>>>>>>>@     ,,,,,,",
",,,,,,,      ;>>>>>>>>>>>>>>>>>>>>>>>>>*          >>>>>>>>>>>>>>>>>>>>>>>>>>>>>>>:o           @>>>>>>>>>>>>>>>>>>>>:.     ,,,,,,",
",,,,,,,      $>>>>>>>>>>>>>>>>#+$*=>>>>$         O>>>>>>>>>>>>>>>>>>>>>>>>>>>>>>:o           .:>>>>>>>>>>>>>>>>>>>>%      ,,,,,,",
",,,,,,,,     .>>>>>>>>>>>>>>>>.     XO$o         @>>>>>>>>>>>>>>>>>>>>>>>>>>>>>-X            %>>>>>>>>>>>>>>>>>>>>>X     ,,,,,,,",
",,,,,,,,      &>>>>>>>>>>>>>>>                   $>>>>>>>>>>>>>>>>>>>>>>>>>>>:$             O>>>>>>>>>>>>>>>>>>>>>&      ,,,,,,,",
",,,,,,,,,     X>>>>>>>>>>>>>>=                   o+$*->>>>>>>>>>>>>>>>>>>>>-#.             .:>>>>>>>>>>>>>>>>>>>>>X     ,,,,,,,,",
",,,,,,,,,      &>>>>>>>>>>>>>&                         oO$$==:>>>>>>>>>-*#X                ->>>>>>>>>>>>>>>>>>>>>&      ,,,,,,,,",
",,,,,,,,,,     X:>>>>>>>>>>>>$                                  .OOOX                     &>>>>>>>>>>>>>>>>>>>>>>X      ,,,,,,,,",
",,,,,,,,,,      $>>>>>>>>>>>>O                                                           &>>>>>>>>>>>>>>>>>>>>>>%      ,,,,,,,,,",
",,,,,,,,,,,     .;>>>>>>>>>>>X                                                          &>>>>>>>>>>>>>>>>>>>>>>:.     ,,,,,,,,,,",
",,,,,,,,,,,      O>>>>>>>>>>>$Oo                                                      .=>>>>>>>>>>>>>>>>>>>>>>>+      ,,,,,,,,,,",
",,,,,,,,,,,,      *>>>>>>>>>>>>>>-*$@o                                               +:>>>>>>>>>>>>>>>>>>>>>>>*      ,,,,,,,,,,,",
",,,,,,,,,,,,      .;>>>>>>>>>>>>>>>>>=                                             O=>>>>>>>>>>>>>>>>>>>>>>>>:.      ,,,,,,,,,,,",
",,,,,,,,,,,,,      O>>>>>>>>>>>>>>>>>$      +:=&$.                              .@=>>>>>>>>>>>>>>>>>>>>>>>>>>+      ,,,,,,,,,,,,",
",,,,,,,,,,,,,,      $>>>>>>>>>>>>>>>>@      $>>>>O      o.                   X@*>>>>>>>>>>>>>>>>>>>>>>>>>>>>%       ,,,,,,,,,,,,",
",,,,,,,,,,,,,,       *>>>>>>>>>>>>>>>O      *>>>>       =>>-=&$$$OOOOOOO#$%=:>>>>>>>>>>>>>>>>>>>>>>>>>>>>>>=       ,,,,,,,,,,,,,",
",,,,,,,,,,,,,,,      .->>>>>>>>>>>>>>       ->>>:       >>>>>>>>>>>>>>>>>>>>>>>>>>>>>>>>>>>>>>>>>>>>>>>>>>;.      ,,,,,,,,,,,,,,",
",,,,,,,,,,,,,,,,      X:>>>>>>>>>>>>:       >>>>=      X>>>>>>>>>>>>>>>>>>>>>>>>>>>>>>>>>>>>>>>>>>>>>>>>>:o      ,,,,,,,,,,,,,,,",
",,,,,,,,,,,,,,,,       o:>>>>>>>>>>>=      X>>>>%      O>>>>>>>>>>>>>>>>>>>>>>>>>>>>>>>>>>>>>>>>>>>>>>>>:o       ,,,,,,,,,,,,,,,",
",,,,,,,,,,,,,,,,,       o:>>>>>>>>>>%      O>>>>#      $>>>>>>>>>>>>>>>>>>>>>>>>>>>>>>>>>>>>>>>>>>>>>>>:o       ,,,,,,,,,,,,,,,,",
",,,,,,,,,,,,,,,,,,       o:>>>>>>>>>#      $>>>>O      &>>>>>>>>>>>>>>>>>>>>>>>>>>>>>>>>>>>>>>>>>>>>>>:o       ,,,,,,,,,,,,,,,,,",
",,,,,,,,,,,,,,,,,,,       o:>>>>>>>>O      &>>>>X      =>>>>>>>>>>>>>>>>>>>>>>>>>>>>>>>>>>>>>>>>>>>>>:o       ,,,,,,,,,,,,,,,,,,",
",,,,,,,,,,,,,,,,,,,,       o;>>>>>>>.      =>>>>       :>>>>>>>>>>>>>>>>>>>>>>>>>>>>>>>>>>>>>>>>>>>>:o       ,,,,,,,,,,,,,,,,,,,",
",,,,,,,,,,,,,,,,,,,,,       .->>>>>>$+O    :>>>=      .>>>>>>>>>>>>>>>>>>>>>>>>>>>>>>>>>>>>>>>>>>>>-.       ,,,,,,,,,,,,,,,,,,,,",
",,,,,,,,,,,,,,,,,,,,,,        &>>>>>>>>>;=$>>>>&      O>>>>>>>>>>>>>>>>>>>>>>>>>>>>>>>>>>>>>>>>>>>&.       ,,,,,,,,,,,,,,,,,,,,,",
",,,,,,,,,,,,,,,,,,,,,,,        @:>>>>>>>>>>>>>>=@O    #>>>>>>>>>>>>>>>>>>>>>>>>>>>>>>>>>>>>>>>>>:@        ,,,,,,,,,,,,,,,,,,,,,,",
",,,,,,,,,,,,,,,,,,,,,,,,        X=>>>>>>>>>>>>>>>>>;=%=>>>>>>>>>>>>>>>>>>>>>>>>>>>>>>>>>>>>>>>>-o        ,,,,,,,,,,,,,,,,,,,,,,,",
",,,,,,,,,,,,,,,,,,,,,,,,,         #:>>>>>>>>>>>>>>>>>>>>>>>>>>>>>>>>>>>>>>>>>>>>>>>>>>>>>>>>>>$         ,,,,,,,,,,,,,,,,,,,,,,,,",
",,,,,,,,,,,,,,,,,,,,,,,,,,         X*>>>>>>>>>>>>>>>>>>>>>>>>>>>>>>>>>>>>>>>>>>>>>>>>>>>>>>>=X         ,,,,,,,,,,,,,,,,,,,,,,,,,",
",,,,,,,,,,,,,,,,,,,,,,,,,,,,         O=>>>>>>>>>>>>>>>>>>>>>>>>>>>>>>>>>>>>>>>>>>>>>>>>>>>;O         ,,,,,,,,,,,,,,,,,,,,,,,,,,,",
",,,,,,,,,,,,,,,,,,,,,,,,,,,,,          @;>>>>>>>>>>>>>>>>>>>>>>>>>>>>>>>>>>>>>>>>>>>>>>>;@          ,,,,,,,,,,,,,,,,,,,,,,,,,,,,",
",,,,,,,,,,,,,,,,,,,,,,,,,,,,,,           O=>>>>>>>>>>>>>>>>>>>>>>>>>>>>>>>>>>>>>>>>>>>=+           ,,,,,,,,,,,,,,,,,,,,,,,,,,,,,",
",,,,,,,,,,,,,,,,,,,,,,,,,,,,,,,,           X%:>>>>>>>>>>>>>>>>>>>>>>>>>>>>>>>>>>>>>:&o           ,,,,,,,,,,,,,,,,,,,,,,,,,,,,,,,",
",,,,,,,,,,,,,,,,,,,,,,,,,,,,,,,,,,            +&:>>>>>>>>>>>>>>>>>>>>>>>>>>>>>>>:&+             ,,,,,,,,,,,,,,,,,,,,,,,,,,,,,,,,",
",,,,,,,,,,,,,,,,,,,,,,,,,,,,,,,,,,,              O$=>>>>>>>>>>>>>>>>>>>>>>>>>=%O              ,,,,,,,,,,,,,,,,,,,,,,,,,,,,,,,,,,",
",,,,,,,,,,,,,,,,,,,,,,,,,,,,,,,,,,,,,                O#%=;>>>>>>>>>>>>>:=%#O                ,,,,,,,,,,,,,,,,,,,,,,,,,,,,,,,,,,,,",
",,,,,,,,,,,,,,,,,,,,,,,,,,,,,,,,,,,,,,,                    .OOOOOOOOO.                    ,,,,,,,,,,,,,,,,,,,,,,,,,,,,,,,,,,,,,,",
",,,,,,,,,,,,,,,,,,,,,,,,,,,,,,,,,,,,,,,,,,                                             ,,,,,,,,,,,,,,,,,,,,,,,,,,,,,,,,,,,,,,,,,",
",,,,,,,,,,,,,,,,,,,,,,,,,,,,,,,,,,,,,,,,,,,,                                         ,,,,,,,,,,,,,,,,,,,,,,,,,,,,,,,,,,,,,,,,,,,",
",,,,,,,,,,,,,,,,,,,,,,,,,,,,,,,,,,,,,,,,,,,,,,,,                                  ,,,,,,,,,,,,,,,,,,,,,,,,,,,,,,,,,,,,,,,,,,,,,,",
",,,,,,,,,,,,,,,,,,,,,,,,,,,,,,,,,,,,,,,,,,,,,,,,,,,                           ,,,,,,,,,,,,,,,,,,,,,,,,,,,,,,,,,,,,,,,,,,,,,,,,,,",
",,,,,,,,,,,,,,,,,,,,,,,,,,,,,,,,,,,,,,,,,,,,,,,,,,,,,,,,,               ,,,,,,,,,,,,,,,,,,,,,,,,,,,,,,,,,,,,,,,,,,,,,,,,,,,,,,,,",
",,,,,,,,,,,,,,,,,,,,,,,,,,,,,,,,,,,,,,,,,,,,,,,,,,,,,,,,,,,,,,,,,,,,,,,,,,,,,,,,,,,,,,,,,,,,,,,,,,,,,,,,,,,,,,,,,,,,,,,,,,,,,,,,",
",,,,,,,,,,,,,,,,,,,,,,,,,,,,,,,,,,,,,,,,,,,,,,,,,,,,,,,,,,,,,,,,,,,,,,,,,,,,,,,,,,,,,,,,,,,,,,,,,,,,,,,,,,,,,,,,,,,,,,,,,,,,,,,,"
};
