/* XPM */
static char *_9a650e725ad4376be1a4cb933650259[] = {
/* columns rows colors chars-per-pixel */
"64 64 18 1 ",
"  c #ED1C24",
". c #EE2A32",
"X c #EF383F",
"o c #F0474D",
"O c #F2555B",
"+ c #F36368",
"@ c #F47176",
"# c #F57F84",
"$ c #F68E92",
"% c #F79C9F",
"& c #F8AAAD",
"* c #F9B8BB",
"= c #FBC6C8",
"- c #FCD4D6",
"; c #FDE3E4",
": c #FEF1F1",
"> c gray100",
", c None",
/* pixels */
",,,,,,,,,,,,,,,,,,,,,,,,,,,,,,,,,,,,,,,,,,,,,,,,,,,,,,,,,,,,,,,,",
",,,,,,,,,,,,,,,,,,,,,,,,,,,,,,,,,,,,,,,,,,,,,,,,,,,,,,,,,,,,,,,,",
",,,,,,,,,,,,,,,,,,,,,,,,,,,,,,      ,,,,,,,,,,,,,,,,,,,,,,,,,,,,",
",,,,,,,,,,,,,,,,,,,,,,,,,                ,,,,,,,,,,,,,,,,,,,,,,,",
",,,,,,,,,,,,,,,,,,,,,,                      ,,,,,,,,,,,,,,,,,,,,",
",,,,,,,,,,,,,,,,,,,       .O$%=====*$@o       ,,,,,,,,,,,,,,,,,,",
",,,,,,,,,,,,,,,,,      X$->>>>>>>>>>>>>:*@.     ,,,,,,,,,,,,,,,,",
",,,,,,,,,,,,,,,,     @->>>>>>>>>>>>>>>>>>>:&X     ,,,,,,,,,,,,,,",
",,,,,,,,,,,,,,     @;>>>>-O@$:>>>>>>>>>>>>>>>&X    ,,,,,,,,,,,,,",
",,,,,,,,,,,,,    o=>>>>>>%   ->&O$&>>>>>>>>>>>>$    ,,,,,,,,,,,,",
",,,,,,,,,,,,    #>>>>>>>>#   >>+  .>>>>>>>>>>>>>-o   ,,,,,,,,,,,",
",,,,,,,,,,,   .*>>>>>>>>>O  o>>O  O>>>>>>>>>>>>>>:+    ,,,,,,,,,",
",,,,,,,,,,   .->>>>>>>>>>.  +>>   @>>>>>>>>>>>>>>>>@   ,,,,,,,,,",
",,,,,,,,,   .->>>>>>>>>>>   $>;   $>>>>>>>>>>>>>>>>>@   ,,,,,,,,",
",,,,,,,,   .->>>>>>>#$=-=   &>=   =>>>>>>>>>>>>>>>>>>@   ,,,,,,,",
",,,,,,,,   *>>>>>>>>        $=$   ;>>>>>>>>>>>>>>>>>>>O   ,,,,,,",
",,,,,,,   $>>>>>>>>-              &=>>>>>>>>>>>>>>>>>>:.   ,,,,,",
",,,,,,   o>>>>>>>>>*                 o#*>>>>>>>>>>>>>>>=   ,,,,,",
",,,,,,   ->>>>>>>>>=@O                   @=>>>>>>>>>>>>>@   ,,,,",
",,,,,   #>>>>>>>>>>>>>>;                   +:>>>>>>>>>>>:.  ,,,,",
",,,,,  .:>>>>>>>>>>>>>>-     :=&$O.         .->>>>>>>>>>>$   ,,,",
",,,,   #>>>>>>>>>>>>>>>*    O>>>>>>;&@.      .&>>>>>>>>>>:.  ,,,",
",,,,   ;>>>>>>>>>>>>>>>$    +>>>>>>>>>>&O     .->>>>>>>>>>@  ,,,",
",,,,  +>>>>>>>>>>>>>>>>+    $>>>>>>>>>>>>%     X:>>>>>>>>>-   ,,",
",,,   &>>>>>>>>>>>>>>>>o    *>>>>>>>>>>>>>&     $>>>>>>>>>>X  ,,",
",,,   :>>>>>>>>>>>>>>>>     ->>>>>>>>>>>>>>#    .:>>>>>>>>>#  ,,",
",,,  o>>>>>>>>>>>>>>>>;     >>>>>>>>>>>>>>>:.    %>>>>>>>>>*   ,",
",,,  #>>>>>>>>>>>>>>>>=    X>>>>>>>>>>>>>>>>#    o>>>>>>>>>:   ,",
",,,  %>>>>>>>>>>>>>>>>$    O>>>>>>>>>>>>>>>>=     :>>>>>>>>>X  ,",
",,   =>>>>>>>>>>>>>>>>@    $>>>>>>>>>>>>>>>>>     =>>>>>>>>>O  ,",
",,   ->>>>>>>>>>>>>>>>O    &>>>>>>>>>>>>>>>>>o    %>>>>>>>>>@  ,",
",,   >>>>>>>>>>>>>>>>>.    =>>>>>>>>>>>>>>>>>O    $>>>>>>>>>$  ,",
",,   >>>>>>>>>>>>>>>>:     >>>>>>>>>>>>>>>>>>O    $>>>>>>>>>$  ,",
",,   >>>>>>>>>>>>>>>>=    .>>>>>>>>>>>>>>>>>>O    $>>>>>>>>>$  ,",
",,   >>>>>>>>>>>>>>>>%    O>>>>>>>>>>>>>>>>>>X    &>>>>>>>>>$  ,",
",,   =>>>>>>>>>>>>>>>$    #>>>>>>>>>>>>>>>>>>     =>>>>>>>>>@  ,",
",,   =>>>>>>>>>>>>>>>O    %>>>>>>>>>>>>>>>>>=     :>>>>>>>>>O  ,",
",,,  %>>>>>>>>>>>>>>>X    =>>>>>>>>>>>>>>>>>$    X>>>>>>>>>>.  ,",
",,,  @>>>>>>>>>>>>>>>     ;>>>>>>>>>>>>>>>>>o    @>>>>>>>>>:   ,",
",,,  X>>>>>>>>>>>>>>=     >>>>>>>>>>>>>>>>>-     *>>>>>>>>>*   ,",
",,,   ;>>>>>>>>>>>>>&    O>>>>>>>>>>>>>>>>>+    .>>>>>>>>>>#  ,,",
",,,   %>>>>>>>>>>>>>$    @>>>>>>>>>>>>>>>>=     #>>>>>>>>>>X  ,,",
",,,,  o>>>>>>>>>>>>>+    $>>>>>>>>>>>>>>>:.     ;>>>>>>>>>=   ,,",
",,,,   ;>>>>>>>=%=:>o    =>>>>>>>>>>>>>>:o     $>>>>>>>>>>@  ,,,",
",,,,   @>>>>>>>@         ->>>>>>>>>>>>>=X     X:>>>>>>>>>;   ,,,",
",,,,,   ;>>>>>>O          o+$&=->>>;=$X      .->>>>>>>>>>#   ,,,",
",,,,,   @>>>>>>                              &>>>>>>>>>>;   ,,,,",
",,,,,,   =>>>>>OX                          .=>>>>>>>>>>>+   ,,,,",
",,,,,,   X:>>>>>>>-O                      @:>>>>>>>>>>>*   ,,,,,",
",,,,,,,   @>>>>>>>>O  O>;.  .X        .O%:>>>>>>>>>>>>;.  ,,,,,,",
",,,,,,,,   &>>>>>>>   @>>   $>>:=====:>>>>>>>>>>>>>>>:o   ,,,,,,",
",,,,,,,,    =>>>>>:   $>-   %>>>>>>>>>>>>>>>>>>>>>>>>+   ,,,,,,,",
",,,,,,,,,   .->>>>=   *>*   =>>>>>>>>>>>>>>>>>>>>>>>@   ,,,,,,,,",
",,,,,,,,,,   .*>>>%   ->$   :>>>>>>>>>>>>>>>>>>>>>:@   ,,,,,,,,,",
",,,,,,,,,,,    %>>;$#O>>+  .>>>>>>>>>>>>>>>>>>>>>:o   ,,,,,,,,,,",
",,,,,,,,,,,,    +:>>>>>>=$+#>>>>>>>>>>>>>>>>>>>>*.   ,,,,,,,,,,,",
",,,,,,,,,,,,,    .*>>>>>>>>>>>>>>>>>>>>>>>>>>>:@    ,,,,,,,,,,,,",
",,,,,,,,,,,,,,,    O=>>>>>>>>>>>>>>>>>>>>>>>:$.    ,,,,,,,,,,,,,",
",,,,,,,,,,,,,,,,     O&>>>>>>>>>>>>>>>>>>>;#.     ,,,,,,,,,,,,,,",
",,,,,,,,,,,,,,,,,,     .@*:>>>>>>>>>>>>-%o      ,,,,,,,,,,,,,,,,",
",,,,,,,,,,,,,,,,,,,,       X+$$*==%$#O.       ,,,,,,,,,,,,,,,,,,",
",,,,,,,,,,,,,,,,,,,,,,                      ,,,,,,,,,,,,,,,,,,,,",
",,,,,,,,,,,,,,,,,,,,,,,,,               ,,,,,,,,,,,,,,,,,,,,,,,,",
",,,,,,,,,,,,,,,,,,,,,,,,,,,,,,,   ,,,,,,,,,,,,,,,,,,,,,,,,,,,,,,"
};
