/* XPM */
static char *_d79e3162cc74563fe8a38d45880d82d[] = {
/* columns rows colors chars-per-pixel */
"16 16 21 1 ",
"  c #ED1C24",
". c #EE2A32",
"X c #EE2B33",
"o c #EE2C34",
"O c #EF383F",
"+ c #EF3A41",
"@ c #F0474D",
"# c #F2555B",
"$ c #F36368",
"% c #F47176",
"& c #F57F84",
"* c #F68E92",
"= c #F79C9F",
"- c #F8AAAD",
"; c #F9B8BB",
": c #FBC6C8",
"> c #FCD4D6",
", c #FDE3E4",
"< c #FEF1F1",
"1 c gray100",
"2 c None",
/* pixels */
"22222222 2222222",
"22222 $*:=%. 222",
"2222@><#=>1<* 22",
"222$<,-*#1111- 2",
"22+<1*.  %-<11&2",
"22-111$$:=@@,1<o",
"2 <111#*111#$11%",
"2@1111 ;111; 11*",
"2#111, >111: 11*",
"2o111: 1111=O11&",
"2 >11*@111<O%11@",
"22$1#.O***@.<1: ",
"22 -<@%###=<1<+2",
"222 -&;*1111,@22",
"2222 #;111,*o222",
"222222  +  22222"
};
